<?xml version="1.0" encoding="UTF-8" standalone="no"?>
<!DOCTYPE svg PUBLIC "-//W3C//DTD SVG 1.1//EN"
 "http://www.w3.org/Graphics/SVG/1.1/DTD/svg11.dtd">
<!-- Generated by graphviz version 2.40.1 (20161225.0304)
 -->
<!-- Title: UmlClassDiagram Pages: 1 -->
<svg width="1016pt" height="755pt"
 viewBox="0.00 0.00 1015.68 755.20" xmlns="http://www.w3.org/2000/svg" xmlns:xlink="http://www.w3.org/1999/xlink">
<g id="graph0" class="graph" transform="scale(1 1) rotate(0) translate(4 751.2)">
<title>UmlClassDiagram</title>
<polygon fill="#ffffff" stroke="transparent" points="-4,4 -4,-751.2 1011.6793,-751.2 1011.6793,4 -4,4"/>
<!-- 0 -->
<g id="node1" class="node">
<title>0</title>
<polygon fill="#f2f2f2" stroke="#000000" points="154.8667,-408.9 154.8667,-525.7 536.5159,-525.7 536.5159,-408.9 154.8667,-408.9"/>
<text text-anchor="middle" x="345.6913" y="-509.1" font-family="Times,serif" font-size="14.00" fill="#000000">CertificadoFactory</text>
<polyline fill="none" stroke="#000000" points="154.8667,-500.9 536.5159,-500.9 "/>
<text text-anchor="start" x="162.8667" y="-484.3" font-family="Times,serif" font-size="14.00" fill="#000000">Public:</text>
<text text-anchor="start" x="162.8667" y="-467.5" font-family="Times,serif" font-size="14.00" fill="#000000"> &#160;&#160;certificadoRegistrados: Certificado[]</text>
<text text-anchor="start" x="162.8667" y="-450.7" font-family="Times,serif" font-size="14.00" fill="#000000"> &#160;&#160;contratosAcreditadoAddress: mapping(address=&gt;Certificado[])</text>
<text text-anchor="start" x="162.8667" y="-433.9" font-family="Times,serif" font-size="14.00" fill="#000000"> &#160;&#160;minVotosCertificadoPopular: uint256</text>
<text text-anchor="start" x="162.8667" y="-417.1" font-family="Times,serif" font-size="14.00" fill="#000000"> &#160;&#160;canCertificadoPopular: bool</text>
</g>
<!-- 1 -->
<g id="node2" class="node">
<title>1</title>
<polygon fill="#f2f2f2" stroke="#000000" points="246.3364,-562.7 246.3364,-746.7 445.0462,-746.7 445.0462,-562.7 246.3364,-562.7"/>
<text text-anchor="middle" x="345.6913" y="-730.1" font-family="Times,serif" font-size="14.00" fill="#000000">Certificado</text>
<polyline fill="none" stroke="#000000" points="246.3364,-721.9 445.0462,-721.9 "/>
<text text-anchor="start" x="254.3364" y="-705.3" font-family="Times,serif" font-size="14.00" fill="#000000">Public:</text>
<text text-anchor="start" x="254.3364" y="-688.5" font-family="Times,serif" font-size="14.00" fill="#000000"> &#160;&#160;dono: address</text>
<text text-anchor="start" x="254.3364" y="-671.7" font-family="Times,serif" font-size="14.00" fill="#000000"> &#160;&#160;hashAcreditado: address</text>
<text text-anchor="start" x="254.3364" y="-654.9" font-family="Times,serif" font-size="14.00" fill="#000000"> &#160;&#160;identificador: string</text>
<text text-anchor="start" x="254.3364" y="-638.1" font-family="Times,serif" font-size="14.00" fill="#000000"> &#160;&#160;categoria: string</text>
<text text-anchor="start" x="254.3364" y="-621.3" font-family="Times,serif" font-size="14.00" fill="#000000"> &#160;&#160;reconhecidoPor: string</text>
<text text-anchor="start" x="254.3364" y="-604.5" font-family="Times,serif" font-size="14.00" fill="#000000"> &#160;&#160;competenciaCertificada: string</text>
<text text-anchor="start" x="254.3364" y="-587.7" font-family="Times,serif" font-size="14.00" fill="#000000"> &#160;&#160;dataCertificado: uint</text>
<text text-anchor="start" x="254.3364" y="-570.9" font-family="Times,serif" font-size="14.00" fill="#000000"> &#160;&#160;valido: bool</text>
</g>
<!-- 0&#45;&gt;1 -->
<g id="edge2" class="edge">
<title>0&#45;&gt;1</title>
<path fill="none" stroke="#000000" stroke-dasharray="5,2" d="M345.6913,-525.8237C345.6913,-534.3287 345.6913,-543.2861 345.6913,-552.3524"/>
<polygon fill="#000000" stroke="#000000" points="342.1914,-552.6164 345.6913,-562.6164 349.1914,-552.6165 342.1914,-552.6164"/>
</g>
<!-- 2 -->
<g id="node3" class="node">
<title>2</title>
<polygon fill="#f2f2f2" stroke="#000000" points="623.7033,-8.9 623.7033,-125.7 1007.6793,-125.7 1007.6793,-8.9 623.7033,-8.9"/>
<text text-anchor="middle" x="815.6913" y="-109.1" font-family="Times,serif" font-size="14.00" fill="#000000">OrganizacaoFactory</text>
<polyline fill="none" stroke="#000000" points="623.7033,-100.9 1007.6793,-100.9 "/>
<text text-anchor="start" x="631.7033" y="-84.3" font-family="Times,serif" font-size="14.00" fill="#000000">Public:</text>
<text text-anchor="start" x="631.7033" y="-67.5" font-family="Times,serif" font-size="14.00" fill="#000000"> &#160;&#160;organizacoesRegistradas: Organizacao[]</text>
<text text-anchor="start" x="631.7033" y="-50.7" font-family="Times,serif" font-size="14.00" fill="#000000"> &#160;&#160;organizacaoRegistradaAddress: mapping(string=&gt;Organizacao)</text>
<text text-anchor="start" x="631.7033" y="-33.9" font-family="Times,serif" font-size="14.00" fill="#000000"> &#160;&#160;organizacaoExists: mapping(string=&gt;bool)</text>
<text text-anchor="start" x="631.7033" y="-17.1" font-family="Times,serif" font-size="14.00" fill="#000000"> &#160;&#160;organizacaoDeletada: mapping(string=&gt;Organizacao[])</text>
</g>
<!-- 3 -->
<g id="node4" class="node">
<title>3</title>
<polygon fill="#f2f2f2" stroke="#000000" points="763.7565,-213.1 763.7565,-329.9 867.6261,-329.9 867.6261,-213.1 763.7565,-213.1"/>
<text text-anchor="middle" x="815.6913" y="-313.3" font-family="Times,serif" font-size="14.00" fill="#000000">Organizacao</text>
<polyline fill="none" stroke="#000000" points="763.7565,-305.1 867.6261,-305.1 "/>
<text text-anchor="start" x="771.7565" y="-288.5" font-family="Times,serif" font-size="14.00" fill="#000000">Public:</text>
<text text-anchor="start" x="771.7565" y="-271.7" font-family="Times,serif" font-size="14.00" fill="#000000"> &#160;&#160;dono: address</text>
<text text-anchor="start" x="771.7565" y="-254.9" font-family="Times,serif" font-size="14.00" fill="#000000"> &#160;&#160;nome: string</text>
<text text-anchor="start" x="771.7565" y="-238.1" font-family="Times,serif" font-size="14.00" fill="#000000"> &#160;&#160;cnpj: string</text>
<text text-anchor="start" x="771.7565" y="-221.3" font-family="Times,serif" font-size="14.00" fill="#000000"> &#160;&#160;valido: bool</text>
</g>
<!-- 2&#45;&gt;3 -->
<g id="edge3" class="edge">
<title>2&#45;&gt;3</title>
<path fill="none" stroke="#000000" stroke-dasharray="5,2" d="M815.6913,-125.8155C815.6913,-149.8465 815.6913,-177.8431 815.6913,-202.8352"/>
<polygon fill="#000000" stroke="#000000" points="812.1914,-202.9759 815.6913,-212.9759 819.1914,-202.976 812.1914,-202.9759"/>
</g>
<!-- 4 -->
<g id="node5" class="node">
<title>4</title>
<polygon fill="#f2f2f2" stroke="#000000" points="0,-8.9 0,-125.7 379.3826,-125.7 379.3826,-8.9 0,-8.9"/>
<text text-anchor="middle" x="189.6913" y="-109.1" font-family="Times,serif" font-size="14.00" fill="#000000">ProfissionalFactory</text>
<polyline fill="none" stroke="#000000" points="0,-100.9 379.3826,-100.9 "/>
<text text-anchor="start" x="8" y="-84.3" font-family="Times,serif" font-size="14.00" fill="#000000">Public:</text>
<text text-anchor="start" x="8" y="-67.5" font-family="Times,serif" font-size="14.00" fill="#000000"> &#160;&#160;profissionalRegistrados: Profissional[]</text>
<text text-anchor="start" x="8" y="-50.7" font-family="Times,serif" font-size="14.00" fill="#000000"> &#160;&#160;profissionalRegistradoAddress: mapping(string=&gt;Profissional)</text>
<text text-anchor="start" x="8" y="-33.9" font-family="Times,serif" font-size="14.00" fill="#000000"> &#160;&#160;profissionalExists: mapping(string=&gt;bool)</text>
<text text-anchor="start" x="8" y="-17.1" font-family="Times,serif" font-size="14.00" fill="#000000"> &#160;&#160;profissionalDeletado: mapping(string=&gt;Profissional[])</text>
</g>
<!-- 4&#45;&gt;0 -->
<g id="edge5" class="edge">
<title>4&#45;&gt;0</title>
<path fill="none" stroke="#000000" stroke-dasharray="5,2" d="M212.5421,-125.8918C240.9071,-198.6225 289.1935,-322.4338 319.1643,-399.282"/>
<polygon fill="#000000" stroke="#000000" points="316.012,-400.8321 322.9063,-408.8769 322.5336,-398.2886 316.012,-400.8321"/>
</g>
<!-- 5 -->
<g id="node6" class="node">
<title>5</title>
<polygon fill="#f2f2f2" stroke="#000000" points="326.7882,-171.1 326.7882,-371.9 676.5944,-371.9 676.5944,-171.1 326.7882,-171.1"/>
<text text-anchor="middle" x="501.6913" y="-355.3" font-family="Times,serif" font-size="14.00" fill="#000000">Profissional</text>
<polyline fill="none" stroke="#000000" points="326.7882,-347.1 676.5944,-347.1 "/>
<text text-anchor="start" x="334.7882" y="-330.5" font-family="Times,serif" font-size="14.00" fill="#000000">Private:</text>
<text text-anchor="start" x="334.7882" y="-313.7" font-family="Times,serif" font-size="14.00" fill="#000000"> &#160;&#160;competenciasCreditadas: mapping(string=&gt;Competencia)</text>
<text text-anchor="start" x="334.7882" y="-296.9" font-family="Times,serif" font-size="14.00" fill="#000000"> &#160;&#160;competenciaIndex: string[]</text>
<text text-anchor="start" x="334.7882" y="-280.1" font-family="Times,serif" font-size="14.00" fill="#000000">Public:</text>
<text text-anchor="start" x="334.7882" y="-263.3" font-family="Times,serif" font-size="14.00" fill="#000000"> &#160;&#160;certificadoFactory: CertificadoFactory</text>
<text text-anchor="start" x="334.7882" y="-246.5" font-family="Times,serif" font-size="14.00" fill="#000000"> &#160;&#160;dono: address</text>
<text text-anchor="start" x="334.7882" y="-229.7" font-family="Times,serif" font-size="14.00" fill="#000000"> &#160;&#160;nome: string</text>
<text text-anchor="start" x="334.7882" y="-212.9" font-family="Times,serif" font-size="14.00" fill="#000000"> &#160;&#160;cpf: string</text>
<text text-anchor="start" x="334.7882" y="-196.1" font-family="Times,serif" font-size="14.00" fill="#000000"> &#160;&#160;registroMedico: string</text>
<text text-anchor="start" x="334.7882" y="-179.3" font-family="Times,serif" font-size="14.00" fill="#000000"> &#160;&#160;valido: bool</text>
</g>
<!-- 4&#45;&gt;5 -->
<g id="edge4" class="edge">
<title>4&#45;&gt;5</title>
<path fill="none" stroke="#000000" stroke-dasharray="5,2" d="M279.098,-125.8155C298.0896,-138.2453 318.7024,-151.7361 339.4624,-165.3233"/>
<polygon fill="#000000" stroke="#000000" points="337.7638,-168.3945 348.0478,-170.9423 341.5972,-162.5375 337.7638,-168.3945"/>
</g>
<!-- 5&#45;&gt;0 -->
<g id="edge6" class="edge">
<title>5&#45;&gt;0</title>
<path fill="none" stroke="#000000" d="M421.6349,-371.9811C413.8815,-381.7125 406.1553,-391.4099 398.7629,-400.6883"/>
<polygon fill="#000000" stroke="#000000" points="395.8542,-398.7224 392.3602,-408.7245 401.329,-403.0843 395.8542,-398.7224"/>
</g>
<!-- 5struct0 -->
<g id="node7" class="node">
<title>5struct0</title>
<polygon fill="#f2f2f2" stroke="#000000" points="397.7353,-.5 397.7353,-134.1 605.6473,-134.1 605.6473,-.5 397.7353,-.5"/>
<text text-anchor="middle" x="501.6913" y="-117.5" font-family="Times,serif" font-size="14.00" fill="#000000">&lt;&lt;struct&gt;&gt;</text>
<text text-anchor="middle" x="501.6913" y="-100.7" font-family="Times,serif" font-size="14.00" fill="#000000">Competencia</text>
<polyline fill="none" stroke="#000000" points="397.7353,-92.5 605.6473,-92.5 "/>
<text text-anchor="start" x="405.7353" y="-75.9" font-family="Times,serif" font-size="14.00" fill="#000000">nomeCompetencia: string</text>
<text text-anchor="start" x="405.7353" y="-59.1" font-family="Times,serif" font-size="14.00" fill="#000000">votantes: mapping(address=&gt;uint)</text>
<text text-anchor="start" x="405.7353" y="-42.3" font-family="Times,serif" font-size="14.00" fill="#000000">votos: uint</text>
<text text-anchor="start" x="405.7353" y="-25.5" font-family="Times,serif" font-size="14.00" fill="#000000">index: uint</text>
<text text-anchor="start" x="405.7353" y="-8.7" font-family="Times,serif" font-size="14.00" fill="#000000">certificado: address</text>
</g>
<!-- 5struct0&#45;&gt;5 -->
<g id="edge1" class="edge">
<title>5struct0&#45;&gt;5</title>
<path fill="none" stroke="#000000" d="M501.6913,-134.1627C501.6913,-142.0558 501.6913,-150.2691 501.6913,-158.5791"/>
<polygon fill="#000000" stroke="#000000" points="501.6914,-158.7974 505.6913,-164.7975 501.6913,-170.7974 497.6913,-164.7974 501.6914,-158.7974"/>
</g>
</g>
</svg>
